<svg xmlns="http://www.w3.org/2000/svg" xmlns:xlink="http://www.w3.org/1999/xlink" contentStyleType="text/css" data-diagram-type="DESCRIPTION" height="809px" preserveAspectRatio="none" style="width:358px;height:809px;background:#FFFFFF;" version="1.1" viewBox="0 0 358 809" width="358px" zoomAndPan="magnify"><defs/><g><!--cluster Sistema HERMES EXPRESS--><g class="cluster" data-entity="Sistema HERMES EXPRESS" data-source-line="6" data-uid="ent0003" id="cluster_Sistema HERMES EXPRESS"><rect fill="none" height="706" rx="2.5" ry="2.5" style="stroke:#181818;stroke-width:1;" width="203" x="149.5" y="97.5"/><text fill="#000000" font-family="sans-serif" font-size="14" font-weight="bold" lengthAdjust="spacing" textLength="187.5098" x="157.2451" y="114.0332">Sistema HERMES EXPRESS</text></g><!--entity Gestionar Usuarios--><g class="entity" data-entity="Gestionar Usuarios" data-source-line="7" data-uid="ent0004" id="entity_Gestionar Usuarios"><ellipse cx="250.3485" cy="151.3697" fill="#F1F1F1" rx="77.3485" ry="17.8697" style="stroke:#181818;stroke-width:0.5;"/><text fill="#000000" font-family="sans-serif" font-size="14" lengthAdjust="spacing" textLength="119.8271" x="190.4349" y="156.6744">Gestionar Usuarios</text></g><!--entity Gestionar Paquetes--><g class="entity" data-entity="Gestionar Paquetes" data-source-line="8" data-uid="ent0006" id="entity_Gestionar Paquetes"><ellipse cx="250.4356" cy="222.6871" fill="#F1F1F1" rx="78.9356" ry="18.1871" style="stroke:#181818;stroke-width:0.5;"/><text fill="#000000" font-family="sans-serif" font-size="14" lengthAdjust="spacing" textLength="123.7441" x="188.5635" y="227.9918">Gestionar Paquetes</text></g><!--entity Asignar Paquetes--><g class="entity" data-entity="Asignar Paquetes" data-source-line="9" data-uid="ent0008" id="entity_Asignar Paquetes"><ellipse cx="250.6509" cy="292.6302" fill="#F1F1F1" rx="73.6509" ry="17.1302" style="stroke:#181818;stroke-width:0.5;"/><text fill="#000000" font-family="sans-serif" font-size="14" lengthAdjust="spacing" textLength="110.5166" x="195.3926" y="297.9349">Asignar Paquetes</text></g><!--entity Gestionar Rutas--><g class="entity" data-entity="Gestionar Rutas" data-source-line="10" data-uid="ent0010" id="entity_Gestionar Rutas"><ellipse cx="250.5545" cy="361.4109" fill="#F1F1F1" rx="70.0545" ry="16.4109" style="stroke:#181818;stroke-width:0.5;"/><text fill="#000000" font-family="sans-serif" font-size="14" lengthAdjust="spacing" textLength="101.1582" x="199.9754" y="366.7156">Gestionar Rutas</text></g><!--entity Ver Reportes--><g class="entity" data-entity="Ver Reportes" data-source-line="11" data-uid="ent0012" id="entity_Ver Reportes"><ellipse cx="250.3239" cy="428.4517" fill="#F1F1F1" rx="61.3239" ry="15.4517" style="stroke:#181818;stroke-width:0.5;"/><text fill="#000000" font-family="sans-serif" font-size="14" lengthAdjust="spacing" textLength="82.4824" x="209.0827" y="433.7564">Ver Reportes</text></g><!--entity Gestionar Tarifas--><g class="entity" data-entity="Gestionar Tarifas" data-source-line="12" data-uid="ent0014" id="entity_Gestionar Tarifas"><ellipse cx="250.428" cy="496.3856" fill="#F1F1F1" rx="72.428" ry="16.8856" style="stroke:#181818;stroke-width:0.5;"/><text fill="#000000" font-family="sans-serif" font-size="14" lengthAdjust="spacing" textLength="107.3721" x="196.742" y="501.6903">Gestionar Tarifas</text></g><!--entity Gestionar Pagos--><g class="entity" data-entity="Gestionar Pagos" data-source-line="13" data-uid="ent0016" id="entity_Gestionar Pagos"><ellipse cx="250.7404" cy="565.6481" fill="#F1F1F1" rx="71.2404" ry="16.6481" style="stroke:#181818;stroke-width:0.5;"/><text fill="#000000" font-family="sans-serif" font-size="14" lengthAdjust="spacing" textLength="104.2822" x="198.5993" y="570.9528">Gestionar Pagos</text></g><!--entity Configurar Sistema--><g class="entity" data-entity="Configurar Sistema" data-source-line="14" data-uid="ent0018" id="entity_Configurar Sistema"><ellipse cx="250.3485" cy="635.3697" fill="#F1F1F1" rx="77.3485" ry="17.8697" style="stroke:#181818;stroke-width:0.5;"/><text fill="#000000" font-family="sans-serif" font-size="14" lengthAdjust="spacing" textLength="119.8271" x="190.4349" y="640.6744">Configurar Sistema</text></g><!--entity Ver Logs--><g class="entity" data-entity="Ver Logs" data-source-line="15" data-uid="ent0020" id="entity_Ver Logs"><ellipse cx="250.6221" cy="704.4517" fill="#F1F1F1" rx="42.6221" ry="15.4517" style="stroke:#181818;stroke-width:0.5;"/><text fill="#000000" font-family="sans-serif" font-size="14" lengthAdjust="spacing" textLength="56.0342" x="222.6051" y="709.7564">Ver Logs</text></g><!--entity Importar Datos--><g class="entity" data-entity="Importar Datos" data-source-line="16" data-uid="ent0022" id="entity_Importar Datos"><ellipse cx="250.3835" cy="771.2767" fill="#F1F1F1" rx="66.8835" ry="15.7767" style="stroke:#181818;stroke-width:0.5;"/><text fill="#000000" font-family="sans-serif" font-size="14" lengthAdjust="spacing" textLength="92.5859" x="204.0905" y="776.5814">Importar Datos</text></g><!--entity Admin--><g class="entity" data-entity="Admin" data-source-line="4" data-uid="ent0002" id="entity_Admin"><ellipse cx="49.1826" cy="398" fill="#F1F1F1" rx="8" ry="8" style="stroke:#181818;stroke-width:0.5;"/><path d="M49.1826,406 L49.1826,433 M36.1826,414 L62.1826,414 M49.1826,433 L36.1826,448 M49.1826,433 L62.1826,448" fill="none" style="stroke:#181818;stroke-width:0.5;"/><text fill="#000000" font-family="sans-serif" font-size="14" lengthAdjust="spacing" textLength="86.3652" x="6" y="464.0332">Administrador</text></g><g class="entity" data-entity="GMN24" data-source-line="20" data-uid="ent0025" id="entity_GMN24"><path d="M158,6 L158,81.4063 L343.0171,81.4063 L343.0171,16 L333.0171,6 L158,6" fill="#FEFFDD" style="stroke:#181818;stroke-width:0.5;"/><path d="M333.0171,6 L333.0171,16 L343.0171,16 L333.0171,6" fill="#FEFFDD" style="stroke:#181818;stroke-width:1;"/><text fill="#000000" font-family="sans-serif" font-size="13" lengthAdjust="spacing" textLength="113.4644" x="164" y="24.4951">Responsabilidades:</text><text fill="#000000" font-family="sans-serif" font-size="13" lengthAdjust="spacing" textLength="135.1353" x="164" y="40.8467">- Configuraci&#243;n general</text><text fill="#000000" font-family="sans-serif" font-size="13" lengthAdjust="spacing" textLength="164.0171" x="164" y="57.1982">- Administraci&#243;n de usuarios</text><text fill="#000000" font-family="sans-serif" font-size="13" lengthAdjust="spacing" textLength="119.209" x="164" y="73.5498">- Revisi&#243;n y reportes</text></g><!--link Admin to Gestionar Usuarios--><g class="link" data-entity-1="Admin" data-entity-2="Gestionar Usuarios" data-source-line="7" data-uid="lnk5" id="link_Admin_Gestionar Usuarios"><path d="M54.32,389.26 C62.24,336.04 83.95,241.35 141.5,186.5 C153.84,174.74 164.4554,168.7585 180.6754,163.5685" fill="none" id="Admin-to-Gestionar Usuarios" style="stroke:#181818;stroke-width:1;"/><polygon fill="#181818" points="186.39,161.74,176.5991,160.6731,181.6278,163.2638,179.0371,168.2925,186.39,161.74" style="stroke:#181818;stroke-width:1;"/></g><!--link Admin to Gestionar Paquetes--><g class="link" data-entity-1="Admin" data-entity-2="Gestionar Paquetes" data-source-line="8" data-uid="lnk7" id="link_Admin_Gestionar Paquetes"><path d="M61.39,389.34 C74.6,350.58 100.04,292.17 141.5,257.5 C154.73,246.44 165.8109,240.6645 182.2009,235.4645" fill="none" id="Admin-to-Gestionar Paquetes" style="stroke:#181818;stroke-width:1;"/><polygon fill="#181818" points="187.92,233.65,178.1318,232.559,183.1541,235.1621,180.551,240.1844,187.92,233.65" style="stroke:#181818;stroke-width:1;"/></g><!--link Admin to Asignar Paquetes--><g class="link" data-entity-1="Admin" data-entity-2="Asignar Paquetes" data-source-line="9" data-uid="lnk9" id="link_Admin_Asignar Paquetes"><path d="M77.46,389.34 C93.91,368.41 116.47,343.69 141.5,327.5 C157.8,316.96 171.7982,311.0578 189.9182,305.6778" fill="none" id="Admin-to-Asignar Paquetes" style="stroke:#181818;stroke-width:1;"/><polygon fill="#181818" points="195.67,303.97,185.9037,302.6971,190.8768,305.3931,188.1808,310.3662,195.67,303.97" style="stroke:#181818;stroke-width:1;"/></g><!--link Admin to Gestionar Rutas--><g class="link" data-entity-1="Admin" data-entity-2="Gestionar Rutas" data-source-line="10" data-uid="lnk11" id="link_Admin_Gestionar Rutas"><path d="M92.24,412.86 C107.69,407.24 125.34,400.96 141.5,395.5 C162.92,388.27 181.1591,382.4469 201.0591,376.2769" fill="none" id="Admin-to-Gestionar Rutas" style="stroke:#181818;stroke-width:1;"/><polygon fill="#181818" points="206.79,374.5,197.0091,373.3447,202.0143,375.9807,199.3783,380.9859,206.79,374.5" style="stroke:#181818;stroke-width:1;"/></g><!--link Admin to Ver Reportes--><g class="link" data-entity-1="Admin" data-entity-2="Ver Reportes" data-source-line="11" data-uid="lnk13" id="link_Admin_Ver Reportes"><path d="M92.31,428.5 C120.33,428.5 151.53,428.5 182.7,428.5" fill="none" id="Admin-to-Ver Reportes" style="stroke:#181818;stroke-width:1;"/><polygon fill="#181818" points="188.7,428.5,179.7,424.5,183.7,428.5,179.7,432.5,188.7,428.5" style="stroke:#181818;stroke-width:1;"/></g><!--link Admin to Gestionar Tarifas--><g class="link" data-entity-1="Admin" data-entity-2="Gestionar Tarifas" data-source-line="12" data-uid="lnk15" id="link_Admin_Gestionar Tarifas"><path d="M92.26,444.07 C107.72,449.68 125.36,455.98 141.5,461.5 C162.85,468.81 180.9961,474.7493 200.8461,481.1093" fill="none" id="Admin-to-Gestionar Tarifas" style="stroke:#181818;stroke-width:1;"/><polygon fill="#181818" points="206.56,482.94,199.2097,476.3846,201.7984,481.4144,196.7687,484.0031,206.56,482.94" style="stroke:#181818;stroke-width:1;"/></g><!--link Admin to Gestionar Pagos--><g class="link" data-entity-1="Admin" data-entity-2="Gestionar Pagos" data-source-line="13" data-uid="lnk17" id="link_Admin_Gestionar Pagos"><path d="M76.99,467.55 C93.45,488.8 116.17,514.03 141.5,530.5 C158.27,541.4 172.9584,547.4855 191.5384,552.8855" fill="none" id="Admin-to-Gestionar Pagos" style="stroke:#181818;stroke-width:1;"/><polygon fill="#181818" points="197.3,554.56,189.774,548.2072,192.4987,553.1646,187.5413,555.8893,197.3,554.56" style="stroke:#181818;stroke-width:1;"/></g><!--link Admin to Configurar Sistema--><g class="link" data-entity-1="Admin" data-entity-2="Configurar Sistema" data-source-line="14" data-uid="lnk19" id="link_Admin_Configurar Sistema"><path d="M61.45,467.59 C74.71,506.29 100.19,564.66 141.5,599.5 C155.17,611.03 166.9604,617.0971 183.8704,622.4571" fill="none" id="Admin-to-Configurar Sistema" style="stroke:#181818;stroke-width:1;"/><polygon fill="#181818" points="189.59,624.27,182.2193,617.7376,184.8237,622.7592,179.802,625.3636,189.59,624.27" style="stroke:#181818;stroke-width:1;"/></g><!--link Admin to Ver Logs--><g class="link" data-entity-1="Admin" data-entity-2="Ver Logs" data-source-line="15" data-uid="lnk21" id="link_Admin_Ver Logs"><path d="M54.25,467.81 C62.1,521.11 83.72,615.89 141.5,670.5 C159.79,687.78 180.8915,695.1808 203.3215,699.3608" fill="none" id="Admin-to-Ver Logs" style="stroke:#181818;stroke-width:1;"/><polygon fill="#181818" points="209.22,700.46,201.1051,694.8789,204.3046,699.544,199.6395,702.7435,209.22,700.46" style="stroke:#181818;stroke-width:1;"/></g><!--link Admin to Importar Datos--><g class="link" data-entity-1="Admin" data-entity-2="Importar Datos" data-source-line="16" data-uid="lnk23" id="link_Admin_Importar Datos"><path d="M50.38,467.74 C53.18,532.75 68.25,662.99 141.5,737.5 C154.73,750.96 167.4343,757.5109 185.3843,762.4409" fill="none" id="Admin-to-Importar Datos" style="stroke:#181818;stroke-width:1;"/><polygon fill="#181818" points="191.17,764.03,183.5508,757.7892,186.3485,762.7058,181.432,765.5036,191.17,764.03" style="stroke:#181818;stroke-width:1;"/></g><!--link Admin to GMN24--><g class="link" data-entity-1="Admin" data-entity-2="GMN24" data-source-line="20" data-uid="lnk26" id="link_Admin_GMN24"><path d="M53.09,389.44 C59.78,326.65 80.32,201.75 141.5,117.5 C151.65,103.52 165.29,91.32 179.46,81.08" fill="none" id="Admin-GMN24" style="stroke:#181818;stroke-width:1;stroke-dasharray:7,7;"/></g><!--SRC=[VP51IiH044NtTOeYArta0Yw4GOCA2aEYuhPCLtgAIRfZTqKOn5Dv12zcPn9c8EfiwzMl__dLSgEe7eFOZQAHmBMATn2tudeAr65FzPOiLxfh6KTCphOCGBNwWDdATE8aQY3ZGuOKSJy1EAnYLYNE7U5jKJuK5HOlwxAegWm_0ATjpFDBFBlXE7fJmASuK10Vp_zRMDFRmChBXLKKUm8VzUMWjAJFdERS-t1A-9XoDNGgcFqL-ygxHkmG4fwR-CFvtjkbxguRmoJLDUbuz1F0UUNvLxwPcouvzjv5UfLM31cE5v3ZmREMxo-7bXq7QXCu_ciYXd6Osqwqv7U9-_ak_Nhg0jWP78tX1m00]--></g></svg>