<svg xmlns="http://www.w3.org/2000/svg" xmlns:xlink="http://www.w3.org/1999/xlink" contentStyleType="text/css" data-diagram-type="DESCRIPTION" height="635px" preserveAspectRatio="none" style="width:350px;height:635px;background:#FFFFFF;" version="1.1" viewBox="0 0 350 635" width="350px" zoomAndPan="magnify"><defs/><g><!--cluster Sistema HERMES EXPRESS--><g class="cluster" data-entity="Sistema HERMES EXPRESS" data-source-line="4" data-uid="ent0003" id="cluster_Sistema HERMES EXPRESS"><rect fill="none" height="532" rx="2.5" ry="2.5" style="stroke:#181818;stroke-width:1;" width="236" x="108" y="97.5"/><text fill="#000000" font-family="sans-serif" font-size="14" font-weight="bold" lengthAdjust="spacing" textLength="187.5098" x="132.2451" y="114.0332">Sistema HERMES EXPRESS</text></g><!--entity Crear/Editar Paquetes--><g class="entity" data-entity="Crear.Editar Paquetes" data-source-line="5" data-uid="ent0004" id="entity_Crear.Editar Paquetes"><ellipse cx="226.0657" cy="153.4131" fill="#F1F1F1" rx="85.0657" ry="19.4131" style="stroke:#181818;stroke-width:0.5;"/><text fill="#000000" font-family="sans-serif" font-size="14" lengthAdjust="spacing" textLength="138.5166" x="156.8074" y="158.7178">Crear/Editar Paquetes</text></g><!--entity Importar Paquetes por Excel--><g class="entity" data-entity="Importar Paquetes por Excel" data-source-line="6" data-uid="ent0006" id="entity_Importar Paquetes por Excel"><ellipse cx="226.0329" cy="231.3066" fill="#F1F1F1" rx="102.0329" ry="22.8066" style="stroke:#181818;stroke-width:0.5;"/><text fill="#000000" font-family="sans-serif" font-size="14" lengthAdjust="spacing" textLength="177.4199" x="137.323" y="236.6113">Importar Paquetes por Excel</text></g><!--entity Asignar a Repartidor--><g class="entity" data-entity="Asignar a Repartidor" data-source-line="7" data-uid="ent0008" id="entity_Asignar a Repartidor"><ellipse cx="225.8439" cy="308.5688" fill="#F1F1F1" rx="80.8439" ry="18.5688" style="stroke:#181818;stroke-width:0.5;"/><text fill="#000000" font-family="sans-serif" font-size="14" lengthAdjust="spacing" textLength="128.3994" x="161.6441" y="313.8735">Asignar a Repartidor</text></g><!--entity Gestionar Caja Chica--><g class="entity" data-entity="Gestionar Caja Chica" data-source-line="8" data-uid="ent0010" id="entity_Gestionar Caja Chica"><ellipse cx="225.7772" cy="381.4554" fill="#F1F1F1" rx="82.7772" ry="18.9554" style="stroke:#181818;stroke-width:0.5;"/><text fill="#000000" font-family="sans-serif" font-size="14" lengthAdjust="spacing" textLength="133.0615" x="159.2465" y="386.7601">Gestionar Caja Chica</text></g><!--entity Generar Reportes--><g class="entity" data-entity="Generar Reportes" data-source-line="9" data-uid="ent0012" id="entity_Generar Reportes"><ellipse cx="225.754" cy="453.2508" fill="#F1F1F1" rx="74.254" ry="17.2508" style="stroke:#181818;stroke-width:0.5;"/><text fill="#000000" font-family="sans-serif" font-size="14" lengthAdjust="spacing" textLength="112.0547" x="169.7266" y="458.5555">Generar Reportes</text></g><!--entity Enviar Notificaciones--><g class="entity" data-entity="Enviar Notificaciones" data-source-line="10" data-uid="ent0014" id="entity_Enviar Notificaciones"><ellipse cx="225.805" cy="525.261" fill="#F1F1F1" rx="81.805" ry="18.761" style="stroke:#181818;stroke-width:0.5;"/><text fill="#000000" font-family="sans-serif" font-size="14" lengthAdjust="spacing" textLength="130.7236" x="160.4432" y="530.5657">Enviar Notificaciones</text></g><!--entity Consultar Tarifas--><g class="entity" data-entity="Consultar Tarifas" data-source-line="11" data-uid="ent0016" id="entity_Consultar Tarifas"><ellipse cx="226.1272" cy="596.3254" fill="#F1F1F1" rx="72.1272" ry="16.8254" style="stroke:#181818;stroke-width:0.5;"/><text fill="#000000" font-family="sans-serif" font-size="14" lengthAdjust="spacing" textLength="106.5928" x="172.8308" y="601.6301">Consultar Tarifas</text></g><!--entity Asistente--><g class="entity" data-entity="Asistente" data-source-line="2" data-uid="ent0002" id="entity_Asistente"><ellipse cx="34.793" cy="315" fill="#F1F1F1" rx="8" ry="8" style="stroke:#181818;stroke-width:0.5;"/><path d="M34.793,323 L34.793,350 M21.793,331 L47.793,331 M34.793,350 L21.793,365 M34.793,350 L47.793,365" fill="none" style="stroke:#181818;stroke-width:0.5;"/><text fill="#000000" font-family="sans-serif" font-size="14" lengthAdjust="spacing" textLength="57.5859" x="6" y="381.0332">Asistente</text></g><g class="entity" data-entity="GMN18" data-source-line="15" data-uid="ent0019" id="entity_GMN18"><path d="M138,6 L138,81.4063 L313.6099,81.4063 L313.6099,16 L303.6099,6 L138,6" fill="#FEFFDD" style="stroke:#181818;stroke-width:0.5;"/><path d="M303.6099,6 L303.6099,16 L313.6099,16 L303.6099,6" fill="#FEFFDD" style="stroke:#181818;stroke-width:1;"/><text fill="#000000" font-family="sans-serif" font-size="13" lengthAdjust="spacing" textLength="113.4644" x="144" y="24.4951">Responsabilidades:</text><text fill="#000000" font-family="sans-serif" font-size="13" lengthAdjust="spacing" textLength="123.5571" x="144" y="40.8467">- Operaciones diarias</text><text fill="#000000" font-family="sans-serif" font-size="13" lengthAdjust="spacing" textLength="154.6099" x="144" y="57.1982">- Importaci&#243;n y verificaci&#243;n</text><text fill="#000000" font-family="sans-serif" font-size="13" lengthAdjust="spacing" textLength="132.2344" x="144" y="73.5498">- Gesti&#243;n de caja chica</text></g><!--link Asistente to Crear/Editar Paquetes--><g class="link" data-entity-1="Asistente" data-entity-2="Crear.Editar Paquetes" data-source-line="5" data-uid="lnk5" id="link_Asistente_Crear.Editar Paquetes"><path d="M42.37,306.27 C50.09,271.16 66.48,220.71 100,190.5 C114.63,177.32 127.9872,170.4905 146.8572,165.0205" fill="none" id="Asistente-to-Crear/Editar Paquetes" style="stroke:#181818;stroke-width:1;"/><polygon fill="#181818" points="152.62,163.35,142.8622,162.0139,147.8177,164.7421,145.0895,169.6976,152.62,163.35" style="stroke:#181818;stroke-width:1;"/></g><!--link Asistente to Importar Paquetes por Excel--><g class="link" data-entity-1="Asistente" data-entity-2="Importar Paquetes por Excel" data-source-line="6" data-uid="lnk7" id="link_Asistente_Importar Paquetes por Excel"><path d="M63.61,306.43 C73.87,294.18 86.36,281.51 100,272.5 C116.1,261.86 129.4926,255.6615 147.8426,249.6015" fill="none" id="Asistente-to-Importar Paquetes por Excel" style="stroke:#181818;stroke-width:1;"/><polygon fill="#181818" points="153.54,247.72,143.7396,246.744,148.7922,249.2879,146.2483,254.3405,153.54,247.72" style="stroke:#181818;stroke-width:1;"/></g><!--link Asistente to Asignar a Repartidor--><g class="link" data-entity-1="Asistente" data-entity-2="Asignar a Repartidor" data-source-line="7" data-uid="lnk9" id="link_Asistente_Asignar a Repartidor"><path d="M64.3,339.96 C90.55,334.82 124.6318,328.1527 158.1418,321.5927" fill="none" id="Asistente-to-Asignar a Repartidor" style="stroke:#181818;stroke-width:1;"/><polygon fill="#181818" points="164.03,320.44,154.4292,318.2436,159.1231,321.4006,155.9661,326.0945,164.03,320.44" style="stroke:#181818;stroke-width:1;"/></g><!--link Asistente to Gestionar Caja Chica--><g class="link" data-entity-1="Asistente" data-entity-2="Gestionar Caja Chica" data-source-line="8" data-uid="lnk11" id="link_Asistente_Gestionar Caja Chica"><path d="M64.3,350.89 C89.94,355.77 122.7558,362.0283 155.7558,368.3083" fill="none" id="Asistente-to-Gestionar Caja Chica" style="stroke:#181818;stroke-width:1;"/><polygon fill="#181818" points="161.65,369.43,153.5565,363.818,156.7382,368.4953,152.0609,371.6769,161.65,369.43" style="stroke:#181818;stroke-width:1;"/></g><!--link Asistente to Generar Reportes--><g class="link" data-entity-1="Asistente" data-entity-2="Generar Reportes" data-source-line="9" data-uid="lnk13" id="link_Asistente_Generar Reportes"><path d="M63.83,384.69 C74.02,396.68 86.42,408.94 100,417.5 C119.49,429.78 137.4712,436.5265 159.0612,441.9565" fill="none" id="Asistente-to-Generar Reportes" style="stroke:#181818;stroke-width:1;"/><polygon fill="#181818" points="164.88,443.42,157.1275,437.3456,160.031,442.2005,155.1762,445.104,164.88,443.42" style="stroke:#181818;stroke-width:1;"/></g><!--link Asistente to Enviar Notificaciones--><g class="link" data-entity-1="Asistente" data-entity-2="Enviar Notificaciones" data-source-line="10" data-uid="lnk15" id="link_Asistente_Enviar Notificaciones"><path d="M43.95,384.61 C52.49,416.86 69.19,461.54 100,488.5 C115.33,501.91 129.5517,508.8542 149.0417,514.3042" fill="none" id="Asistente-to-Enviar Notificaciones" style="stroke:#181818;stroke-width:1;"/><polygon fill="#181818" points="154.82,515.92,147.2297,509.6441,150.0047,514.5735,145.0753,517.3485,154.82,515.92" style="stroke:#181818;stroke-width:1;"/></g><!--link Asistente to Consultar Tarifas--><g class="link" data-entity-1="Asistente" data-entity-2="Consultar Tarifas" data-source-line="11" data-uid="lnk17" id="link_Asistente_Consultar Tarifas"><path d="M36.67,384.76 C39.66,433.01 52.08,514.29 100,561.5 C115.57,576.84 131.4499,584.2042 152.4199,589.1442" fill="none" id="Asistente-to-Consultar Tarifas" style="stroke:#181818;stroke-width:1;"/><polygon fill="#181818" points="158.26,590.52,150.417,584.5629,153.3932,589.3735,148.5826,592.3497,158.26,590.52" style="stroke:#181818;stroke-width:1;"/></g><!--link Asistente to GMN18--><g class="link" data-entity-1="Asistente" data-entity-2="GMN18" data-source-line="15" data-uid="lnk20" id="link_Asistente_GMN18"><path d="M38.24,306.08 C42.84,257.23 56.93,173.58 100,117.5 C110.98,103.2 125.58,91.11 140.92,81.12" fill="none" id="Asistente-GMN18" style="stroke:#181818;stroke-width:1;stroke-dasharray:7,7;"/></g><!--SRC=[RP6nJiGm38RtF8NL2OQAdG49LH4m0AUMWTKaRiyebnGdTm8Xdef7uCLmk1ESH4VRd__ylnDeB50I24_h0fw5NE4K3RgI19hBpBbGBDG0PlYjZAaSnYaGD4DjRX2kRNzh1x2FgzuEGmFl1luse6qluAGJGZcpdWiAhF1bIuNowN_kPZCdEMP0Qx2lZi82hUKK5KReQKOfx9CiO5UKQpG5Etn6wDRiS16B90gfbdfOj6VZZfMuIuL75N6gkiXrAUPjg3aUK7X4PJwCYKdd-tkdyUYcFULP5_290tlqbCzD2_Upcja_eB-ZAfYrUxYFuw_F26-m8paOqLh7Fqdho1EucjNLh8QYX_gu-GO0]--></g></svg>