<svg xmlns="http://www.w3.org/2000/svg" xmlns:xlink="http://www.w3.org/1999/xlink" contentStyleType="text/css" data-diagram-type="DESCRIPTION" height="568px" preserveAspectRatio="none" style="width:405px;height:568px;background:#FFFFFF;" version="1.1" viewBox="0 0 405 568" width="405px" zoomAndPan="magnify"><defs/><g><!--cluster Sistema HERMES EXPRESS--><g class="cluster" data-entity="Sistema HERMES EXPRESS" data-source-line="4" data-uid="ent0003" id="cluster_Sistema HERMES EXPRESS"><rect fill="none" height="481" rx="2.5" ry="2.5" style="stroke:#181818;stroke-width:1;" width="284" x="115" y="81.5"/><text fill="#000000" font-family="sans-serif" font-size="14" font-weight="bold" lengthAdjust="spacing" textLength="187.5098" x="163.2451" y="98.0332">Sistema HERMES EXPRESS</text></g><!--entity Ver Paquetes Asignados--><g class="entity" data-entity="Ver Paquetes Asignados" data-source-line="5" data-uid="ent0004" id="entity_Ver Paquetes Asignados"><ellipse cx="257.241" cy="138.7482" fill="#F1F1F1" rx="91.741" ry="20.7482" style="stroke:#181818;stroke-width:0.5;"/><text fill="#000000" font-family="sans-serif" font-size="14" lengthAdjust="spacing" textLength="154.1025" x="180.1897" y="144.0529">Ver Paquetes Asignados</text></g><!--entity Iniciar Entrega--><g class="entity" data-entity="Iniciar Entrega" data-source-line="6" data-uid="ent0006" id="entity_Iniciar Entrega"><ellipse cx="257.0489" cy="209.6098" fill="#F1F1F1" rx="66.0489" ry="15.6098" style="stroke:#181818;stroke-width:0.5;"/><text fill="#000000" font-family="sans-serif" font-size="14" lengthAdjust="spacing" textLength="90.2686" x="211.9146" y="214.9145">Iniciar Entrega</text></g><!--entity Registrar Entrega con Foto--><g class="entity" data-entity="Registrar Entrega con Foto" data-source-line="7" data-uid="ent0008" id="entity_Registrar Entrega con Foto"><ellipse cx="256.8734" cy="282.4747" fill="#F1F1F1" rx="97.8734" ry="21.9747" style="stroke:#181818;stroke-width:0.5;"/><text fill="#000000" font-family="sans-serif" font-size="14" lengthAdjust="spacing" textLength="168.082" x="172.8323" y="287.7794">Registrar Entrega con Foto</text></g><!--entity Reportar Incidencia / Rezago--><g class="entity" data-entity="Reportar Incidencia . Rezago" data-source-line="8" data-uid="ent0010" id="entity_Reportar Incidencia . Rezago"><ellipse cx="256.7849" cy="362.657" fill="#F1F1F1" rx="103.7849" ry="23.157" style="stroke:#181818;stroke-width:0.5;"/><text fill="#000000" font-family="sans-serif" font-size="14" lengthAdjust="spacing" textLength="181.3232" x="166.1233" y="367.9617">Reportar Incidencia / Rezago</text></g><!--entity Consultar Historial--><g class="entity" data-entity="Consultar Historial" data-source-line="9" data-uid="ent0012" id="entity_Consultar Historial"><ellipse cx="257.1686" cy="438.4337" fill="#F1F1F1" rx="75.1686" ry="17.4337" style="stroke:#181818;stroke-width:0.5;"/><text fill="#000000" font-family="sans-serif" font-size="14" lengthAdjust="spacing" textLength="114.3721" x="199.9826" y="443.7384">Consultar Historial</text></g><!--entity Actualizar Ubicaci?n en Tiempo Real--><g class="entity" data-entity="Actualizar Ubicaci.n en Tiempo Real" data-source-line="10" data-uid="ent0014" id="entity_Actualizar Ubicaci.n en Tiempo Real"><ellipse cx="256.9287" cy="518.5857" fill="#F1F1F1" rx="125.9287" ry="27.5857" style="stroke:#181818;stroke-width:0.5;"/><text fill="#000000" font-family="sans-serif" font-size="14" lengthAdjust="spacing" textLength="229.5508" x="142.1533" y="523.8904">Actualizar Ubicaci&#243;n en Tiempo Real</text></g><!--entity Repartidor--><g class="entity" data-entity="Repartidor" data-source-line="2" data-uid="ent0002" id="entity_Repartidor"><ellipse cx="38.6826" cy="252" fill="#F1F1F1" rx="8" ry="8" style="stroke:#181818;stroke-width:0.5;"/><path d="M38.6826,260 L38.6826,287 M25.6826,268 L51.6826,268 M38.6826,287 L25.6826,302 M38.6826,287 L51.6826,302" fill="none" style="stroke:#181818;stroke-width:0.5;"/><text fill="#000000" font-family="sans-serif" font-size="14" lengthAdjust="spacing" textLength="65.3652" x="6" y="318.0332">Repartidor</text></g><g class="entity" data-entity="GMN16" data-source-line="14" data-uid="ent0017" id="entity_GMN16"><path d="M180,6 L180,65.0547 L333.958,65.0547 L333.958,16 L323.958,6 L180,6" fill="#FEFFDD" style="stroke:#181818;stroke-width:0.5;"/><path d="M323.958,6 L323.958,16 L333.958,16 L323.958,6" fill="#FEFFDD" style="stroke:#181818;stroke-width:1;"/><text fill="#000000" font-family="sans-serif" font-size="13" lengthAdjust="spacing" textLength="113.4644" x="186" y="24.4951">Responsabilidades:</text><text fill="#000000" font-family="sans-serif" font-size="13" lengthAdjust="spacing" textLength="122.8462" x="186" y="40.8467">- Entregas en terreno</text><text fill="#000000" font-family="sans-serif" font-size="13" lengthAdjust="spacing" textLength="132.958" x="186" y="57.1982">- Registro de evidencia</text></g><!--link Repartidor to Ver Paquetes Asignados--><g class="link" data-entity-1="Repartidor" data-entity-2="Ver Paquetes Asignados" data-source-line="5" data-uid="lnk5" id="link_Repartidor_Ver Paquetes Asignados"><path d="M55.51,243.35 C66.72,220.63 83.85,193.26 107,176.5 C126.78,162.17 145.6212,154.6116 169.1612,149.0416" fill="none" id="Repartidor-to-Ver Paquetes Asignados" style="stroke:#181818;stroke-width:1;"/><polygon fill="#181818" points="175,147.66,165.3208,145.8398,170.1344,148.8113,167.1629,153.6249,175,147.66" style="stroke:#181818;stroke-width:1;"/></g><!--link Repartidor to Iniciar Entrega--><g class="link" data-entity-1="Repartidor" data-entity-2="Iniciar Entrega" data-source-line="6" data-uid="lnk7" id="link_Repartidor_Iniciar Entrega"><path d="M71.05,261 C82.05,254.28 94.71,247.36 107,242.5 C136.81,230.71 165.8264,223.7715 194.3664,218.5915" fill="none" id="Repartidor-to-Iniciar Entrega" style="stroke:#181818;stroke-width:1;"/><polygon fill="#181818" points="200.27,217.52,190.7003,215.1915,195.3504,218.4129,192.129,223.0629,200.27,217.52" style="stroke:#181818;stroke-width:1;"/></g><!--link Repartidor to Registrar Entrega con Foto--><g class="link" data-entity-1="Repartidor" data-entity-2="Registrar Entrega con Foto" data-source-line="7" data-uid="lnk9" id="link_Repartidor_Registrar Entrega con Foto"><path d="M71.45,282.5 C94.62,282.5 121.28,282.5 152.7,282.5" fill="none" id="Repartidor-to-Registrar Entrega con Foto" style="stroke:#181818;stroke-width:1;"/><polygon fill="#181818" points="158.7,282.5,149.7,278.5,153.7,282.5,149.7,286.5,158.7,282.5" style="stroke:#181818;stroke-width:1;"/></g><!--link Repartidor to Reportar Incidencia / Rezago--><g class="link" data-entity-1="Repartidor" data-entity-2="Reportar Incidencia . Rezago" data-source-line="8" data-uid="lnk11" id="link_Repartidor_Reportar Incidencia . Rezago"><path d="M71.26,303.08 C82.26,309.61 94.89,316.43 107,321.5 C131.01,331.54 152.4077,338.3326 176.9477,344.7926" fill="none" id="Repartidor-to-Reportar Incidencia / Rezago" style="stroke:#181818;stroke-width:1;"/><polygon fill="#181818" points="182.75,346.32,175.0648,340.1606,177.9147,345.0471,173.0282,347.8971,182.75,346.32" style="stroke:#181818;stroke-width:1;"/></g><!--link Repartidor to Consultar Historial--><g class="link" data-entity-1="Repartidor" data-entity-2="Consultar Historial" data-source-line="9" data-uid="lnk13" id="link_Repartidor_Consultar Historial"><path d="M52.08,321.65 C62.63,348.31 80.31,382.31 107,402.5 C129.39,419.44 152.7266,427.4575 179.3666,432.2975" fill="none" id="Repartidor-to-Consultar Historial" style="stroke:#181818;stroke-width:1;"/><polygon fill="#181818" points="185.27,433.37,177.13,427.8256,180.3505,432.4762,175.6999,435.6968,185.27,433.37" style="stroke:#181818;stroke-width:1;"/></g><!--link Repartidor to Actualizar Ubicaci?n en Tiempo Real--><g class="link" data-entity-1="Repartidor" data-entity-2="Actualizar Ubicaci.n en Tiempo Real" data-source-line="10" data-uid="lnk15" id="link_Repartidor_Actualizar Ubicaci.n en Tiempo Real"><path d="M43,321.77 C48.93,364.84 64.77,433.19 107,473.5 C120.49,486.37 131.905,493.4921 149.605,500.0621" fill="none" id="Repartidor-to-Actualizar Ubicaci&#243;n en Tiempo Real" style="stroke:#181818;stroke-width:1;"/><polygon fill="#181818" points="155.23,502.15,148.1845,495.2681,150.5425,500.4101,145.4006,502.7681,155.23,502.15" style="stroke:#181818;stroke-width:1;"/></g><!--link Repartidor to GMN16--><g class="link" data-entity-1="Repartidor" data-entity-2="GMN16" data-source-line="14" data-uid="lnk18" id="link_Repartidor_GMN16"><path d="M45.05,243.21 C52.62,203.03 69.75,141.05 107,101.5 C126.59,80.7 153.92,66.04 179.82,55.91" fill="none" id="Repartidor-GMN16" style="stroke:#181818;stroke-width:1;stroke-dasharray:7,7;"/></g><!--SRC=[RT2nQiD030RW_Pv2U6e7qxr38HINP0W4korTbJl55JYIgvCxfFIf-WXziPuX9Hcy7EZuVWbfe8E3AnZtxmw9ZQApIi3eQb2rDA8v9xKACCEb366MAFr0K7MSdOu8wwRTDXqqRxkswReAlW9SHQ2k7-3cbGns-36HKuPLvbumQRvTa1lXo6ZGY1lrk4HQwijeko28Al2ahijwLFE2Dn8vKNaGxeewOR_e7rNoDCo1TPcYnZWiiLNq2GS-5VUovuYHVty4IE2PwJXgyNFkEmHHf_EXzN1zovRoM6RXdWTEc2ZVX_f_epntSZ8ZqV9xtbWX4T3dUOj0ac3k7lu0]--></g></svg>